<svg width="221" height="40" viewBox="0 0 221 40" fill="none" xmlns="http://www.w3.org/2000/svg">
<path d="M24 7.65932C26.5956 6.01237 30.12 5 34 5C37.8822 5 41.4044 6.01237 44 7.65932V35.25C41.4044 33.603 37.8822 32.5907 34 32.5907C30.12 32.5907 26.5956 33.603 24 35.25M24 7.65932V35.25V7.65932ZM24 7.65932C21.4044 6.01237 17.88 5 14 5C10.12 5 6.59556 6.01237 4 7.65932V35.25C6.59556 33.603 10.12 32.5907 14 32.5907C17.88 32.5907 21.4044 33.603 24 35.25V7.65932Z" stroke="white" stroke-width="2" stroke-linecap="round" stroke-linejoin="round"/>
<path d="M72.293 28L68.8447 15.6787H68.748C68.791 16.3376 68.8268 16.9749 68.8555 17.5908C68.8698 17.8558 68.8805 18.1279 68.8877 18.4072C68.902 18.6865 68.9128 18.9622 68.9199 19.2344C68.9342 19.5065 68.9414 19.7679 68.9414 20.0186C68.9486 20.2692 68.9521 20.4948 68.9521 20.6953V28H65.9766V12.2949H70.5098L73.9043 24.3047H73.9688L77.5781 12.2949H82.1113V28H79.0068V20.5664C79.0068 20.3802 79.0068 20.1689 79.0068 19.9326C79.014 19.6963 79.0212 19.4456 79.0283 19.1807C79.0355 18.9157 79.0426 18.6471 79.0498 18.375C79.0641 18.1029 79.0749 17.8379 79.082 17.5801C79.1107 16.9785 79.1357 16.3519 79.1572 15.7002H79.0713L75.3545 28H72.293ZM90.8018 28.2148C89.9424 28.2148 89.1654 28.0967 88.4707 27.8604C87.7832 27.624 87.1924 27.2588 86.6982 26.7646C86.2113 26.2633 85.8353 25.626 85.5703 24.8525C85.3125 24.0719 85.1836 23.141 85.1836 22.0596C85.1836 20.8636 85.3161 19.8646 85.5811 19.0625C85.8532 18.2533 86.2327 17.6051 86.7197 17.1182C87.2139 16.6312 87.8047 16.2839 88.4922 16.0762C89.1868 15.8685 89.9567 15.7646 90.8018 15.7646C91.4176 15.7646 92.0299 15.8398 92.6387 15.9902C93.2474 16.1406 93.8203 16.3519 94.3574 16.624L93.4121 19.1162C92.9395 18.9085 92.4847 18.7402 92.0479 18.6113C91.611 18.4753 91.1956 18.4072 90.8018 18.4072C90.0068 18.4072 89.4303 18.7116 89.0723 19.3203C88.7142 19.9219 88.5352 20.8278 88.5352 22.0381C88.5352 23.2412 88.7142 24.1292 89.0723 24.7021C89.4303 25.2751 89.9925 25.5615 90.7588 25.5615C91.3818 25.5615 91.9476 25.4827 92.4561 25.3252C92.9645 25.1605 93.4837 24.9528 94.0137 24.7021V27.4307C93.7487 27.5596 93.4909 27.6742 93.2402 27.7744C92.9896 27.8747 92.7354 27.957 92.4775 28.0215C92.2269 28.0859 91.9619 28.1325 91.6826 28.1611C91.4105 28.1969 91.1169 28.2148 90.8018 28.2148ZM97.043 28V12.2949H100.373V25.25H106.088V28H97.043ZM113.414 18.0957C112.834 18.0957 112.351 18.2998 111.964 18.708C111.584 19.1162 111.366 19.7572 111.309 20.6309H115.487C115.48 20.2656 115.434 19.929 115.348 19.6211C115.262 19.3132 115.133 19.0482 114.961 18.8262C114.789 18.597 114.574 18.418 114.316 18.2891C114.059 18.1602 113.758 18.0957 113.414 18.0957ZM113.833 28.2148C112.974 28.2148 112.182 28.0895 111.459 27.8389C110.736 27.5882 110.113 27.2122 109.59 26.7109C109.067 26.2025 108.659 25.5651 108.365 24.7988C108.079 24.0254 107.936 23.1195 107.936 22.0811C107.936 21.0283 108.068 20.1081 108.333 19.3203C108.598 18.5326 108.967 17.8773 109.439 17.3545C109.919 16.8245 110.492 16.4271 111.158 16.1621C111.831 15.8971 112.576 15.7646 113.393 15.7646C114.188 15.7646 114.904 15.8864 115.541 16.1299C116.186 16.3662 116.73 16.7171 117.174 17.1826C117.625 17.6481 117.969 18.221 118.205 18.9014C118.449 19.5745 118.57 20.348 118.57 21.2217V22.8115H111.244C111.258 23.2699 111.33 23.6852 111.459 24.0576C111.595 24.4229 111.781 24.7344 112.018 24.9922C112.261 25.2428 112.551 25.4362 112.888 25.5723C113.231 25.7083 113.622 25.7764 114.059 25.7764C114.424 25.7764 114.768 25.7585 115.09 25.7227C115.419 25.6797 115.738 25.6188 116.046 25.54C116.354 25.4613 116.658 25.3646 116.959 25.25C117.26 25.1283 117.568 24.9886 117.883 24.8311V27.3662C117.596 27.5166 117.306 27.6455 117.013 27.7529C116.726 27.8532 116.422 27.9391 116.1 28.0107C115.777 28.0824 115.43 28.1325 115.058 28.1611C114.685 28.1969 114.277 28.2148 113.833 28.2148ZM128.313 28L127.68 26.3672H127.583C127.347 26.6895 127.11 26.9688 126.874 27.2051C126.638 27.4342 126.38 27.624 126.101 27.7744C125.821 27.9248 125.506 28.0358 125.155 28.1074C124.812 28.179 124.41 28.2148 123.952 28.2148C123.465 28.2148 123.014 28.1396 122.599 27.9893C122.183 27.8317 121.822 27.599 121.514 27.291C121.213 26.9759 120.977 26.582 120.805 26.1094C120.633 25.6296 120.547 25.0638 120.547 24.4121C120.547 23.1374 120.955 22.1992 121.771 21.5977C122.588 20.9889 123.809 20.6523 125.435 20.5879L127.347 20.5234V19.6211C127.347 19.127 127.203 18.7617 126.917 18.5254C126.631 18.2891 126.229 18.1709 125.714 18.1709C125.198 18.1709 124.693 18.2461 124.199 18.3965C123.712 18.5469 123.222 18.7474 122.728 18.998L121.664 16.8281C122.266 16.4915 122.932 16.2266 123.662 16.0332C124.393 15.8398 125.159 15.7432 125.961 15.7432C127.458 15.7432 128.604 16.0941 129.398 16.7959C130.201 17.4977 130.602 18.5648 130.602 19.9971V28H128.313ZM127.347 22.4355L126.262 22.4785C125.825 22.4928 125.456 22.5501 125.155 22.6504C124.854 22.7507 124.611 22.8867 124.425 23.0586C124.246 23.2233 124.113 23.4238 124.027 23.6602C123.949 23.8893 123.909 24.1471 123.909 24.4336C123.909 24.9349 124.031 25.293 124.274 25.5078C124.518 25.7155 124.837 25.8193 125.23 25.8193C125.531 25.8193 125.811 25.7692 126.068 25.6689C126.326 25.5615 126.548 25.4076 126.734 25.207C126.928 24.9993 127.078 24.7487 127.186 24.4551C127.293 24.1543 127.347 23.8105 127.347 23.4238V22.4355ZM140.237 15.7646C140.323 15.7646 140.416 15.7682 140.517 15.7754C140.624 15.7754 140.724 15.7826 140.817 15.7969C140.918 15.804 141.007 15.8148 141.086 15.8291C141.172 15.8363 141.236 15.847 141.279 15.8613V18.9336C141.222 18.9193 141.143 18.9049 141.043 18.8906C140.943 18.8763 140.835 18.8656 140.721 18.8584C140.613 18.8441 140.506 18.8369 140.398 18.8369C140.291 18.8298 140.201 18.8262 140.13 18.8262C139.707 18.8262 139.317 18.8799 138.959 18.9873C138.608 19.0947 138.304 19.2702 138.046 19.5137C137.795 19.75 137.598 20.0651 137.455 20.459C137.319 20.8457 137.251 21.3219 137.251 21.8877V28H133.975V15.9902H136.456L136.939 17.7949H137.101C137.272 17.487 137.459 17.2077 137.659 16.957C137.86 16.7064 138.082 16.4951 138.325 16.3232C138.576 16.1442 138.855 16.0081 139.163 15.915C139.478 15.8148 139.836 15.7646 140.237 15.7646ZM153.955 28H150.679V20.9854C150.679 20.1188 150.546 19.4707 150.281 19.041C150.023 18.6042 149.608 18.3857 149.035 18.3857C148.605 18.3857 148.247 18.4717 147.961 18.6436C147.674 18.8154 147.445 19.0697 147.273 19.4062C147.109 19.7428 146.991 20.1582 146.919 20.6523C146.847 21.1465 146.812 21.7122 146.812 22.3496V28H143.535V15.9902H146.038L146.479 17.5264H146.661C146.833 17.2184 147.041 16.9535 147.284 16.7314C147.535 16.5094 147.807 16.3268 148.101 16.1836C148.394 16.0404 148.706 15.9365 149.035 15.8721C149.365 15.8005 149.701 15.7646 150.045 15.7646C150.632 15.7646 151.166 15.8506 151.646 16.0225C152.125 16.1872 152.537 16.4486 152.881 16.8066C153.225 17.1647 153.49 17.623 153.676 18.1816C153.862 18.7331 153.955 19.3955 153.955 20.1689V28ZM167.641 28H164.364V20.9854C164.364 20.1188 164.235 19.4707 163.978 19.041C163.72 18.6042 163.315 18.3857 162.764 18.3857C162.348 18.3857 162.001 18.4717 161.722 18.6436C161.45 18.8154 161.231 19.0697 161.066 19.4062C160.902 19.7428 160.784 20.1582 160.712 20.6523C160.64 21.1465 160.604 21.7122 160.604 22.3496V28H157.328V15.9902H159.831L160.271 17.5264H160.454C160.626 17.2184 160.83 16.9535 161.066 16.7314C161.31 16.5094 161.575 16.3268 161.861 16.1836C162.148 16.0404 162.452 15.9365 162.774 15.8721C163.097 15.8005 163.423 15.7646 163.752 15.7646C164.576 15.7646 165.274 15.9079 165.847 16.1943C166.427 16.4736 166.871 16.9176 167.179 17.5264H167.447C167.619 17.2184 167.827 16.9535 168.07 16.7314C168.314 16.5094 168.582 16.3268 168.876 16.1836C169.17 16.0404 169.478 15.9365 169.8 15.8721C170.129 15.8005 170.459 15.7646 170.788 15.7646C172.077 15.7646 173.048 16.1156 173.699 16.8174C174.358 17.512 174.688 18.6292 174.688 20.1689V28H171.4V20.9854C171.4 20.1188 171.271 19.4707 171.014 19.041C170.756 18.6042 170.351 18.3857 169.8 18.3857C169.019 18.3857 168.464 18.6973 168.135 19.3203C167.805 19.9362 167.641 20.8206 167.641 21.9736V28ZM186.063 24.4336C186.063 25.0638 185.949 25.6152 185.72 26.0879C185.491 26.5605 185.165 26.9544 184.742 27.2695C184.32 27.5846 183.808 27.821 183.206 27.9785C182.604 28.1361 181.931 28.2148 181.187 28.2148C180.793 28.2148 180.427 28.2005 180.091 28.1719C179.754 28.1504 179.436 28.111 179.135 28.0537C178.834 27.9964 178.544 27.9248 178.265 27.8389C177.985 27.7529 177.702 27.6455 177.416 27.5166V24.8096C177.717 24.96 178.032 25.096 178.361 25.2178C178.698 25.3395 179.031 25.4469 179.36 25.54C179.69 25.626 180.008 25.694 180.316 25.7441C180.632 25.7943 180.922 25.8193 181.187 25.8193C181.48 25.8193 181.731 25.7943 181.938 25.7441C182.146 25.6868 182.314 25.6117 182.443 25.5186C182.579 25.4183 182.676 25.3037 182.733 25.1748C182.798 25.0387 182.83 24.8955 182.83 24.7451C182.83 24.5947 182.805 24.4622 182.755 24.3477C182.712 24.2259 182.608 24.1006 182.443 23.9717C182.279 23.8356 182.035 23.6852 181.713 23.5205C181.398 23.3486 180.972 23.141 180.435 22.8975C179.912 22.6611 179.457 22.4284 179.07 22.1992C178.691 21.9629 178.376 21.7015 178.125 21.415C177.882 21.1286 177.699 20.8027 177.577 20.4375C177.455 20.0651 177.395 19.6247 177.395 19.1162C177.395 18.5576 177.502 18.0706 177.717 17.6553C177.932 17.2327 178.236 16.8818 178.63 16.6025C179.024 16.3232 179.496 16.1156 180.048 15.9795C180.606 15.8363 181.226 15.7646 181.906 15.7646C182.622 15.7646 183.303 15.847 183.947 16.0117C184.592 16.1764 185.254 16.4235 185.935 16.7529L184.946 19.0732C184.402 18.8154 183.883 18.6042 183.389 18.4395C182.895 18.2747 182.4 18.1924 181.906 18.1924C181.462 18.1924 181.14 18.2712 180.939 18.4287C180.746 18.5863 180.649 18.8011 180.649 19.0732C180.649 19.2165 180.674 19.3454 180.725 19.46C180.775 19.5674 180.875 19.682 181.025 19.8037C181.176 19.9183 181.387 20.0472 181.659 20.1904C181.931 20.3265 182.286 20.4948 182.723 20.6953C183.231 20.9173 183.689 21.1393 184.098 21.3613C184.506 21.5762 184.857 21.8232 185.15 22.1025C185.444 22.3818 185.67 22.7077 185.827 23.0801C185.985 23.4525 186.063 23.9036 186.063 24.4336Z" fill="white"/>
</svg>
