<svg width="57" height="56" viewBox="0 0 57 56" fill="none" xmlns="http://www.w3.org/2000/svg">
<rect x="0.300781" width="56" height="56" rx="4" fill="#0DB6BC" fill-opacity="0.1"/>
<path d="M43.3021 16.3333C41.4521 15.75 39.4187 15.5 37.4687 15.5C34.2187 15.5 30.7187 16.1667 28.3021 18C25.8854 16.1667 22.3854 15.5 19.1354 15.5C15.8854 15.5 12.3854 16.1667 9.96875 18V42.4167C9.96875 42.8333 10.3854 43.25 10.8021 43.25C10.9687 43.25 11.0521 43.1667 11.2187 43.1667C13.4687 42.0833 16.7187 41.3333 19.1354 41.3333C22.3854 41.3333 25.8854 42 28.3021 43.8333C30.5521 42.4167 34.6354 41.3333 37.4687 41.3333C40.2187 41.3333 43.0521 41.8333 45.3854 43.0833C45.5521 43.1667 45.6354 43.1667 45.8021 43.1667C46.2187 43.1667 46.6354 42.75 46.6354 42.3333V18C45.6354 17.25 44.5521 16.75 43.3021 16.3333ZM43.3021 38.8333C41.4687 38.25 39.4687 38 37.4687 38C34.6354 38 30.5521 39.0833 28.3021 40.5V21.3333C30.5521 19.9167 34.6354 18.8333 37.4687 18.8333C39.4687 18.8333 41.4687 19.0833 43.3021 19.6667V38.8333Z" fill="#0DB6BC"/>
<path d="M37.4688 25.5C38.9354 25.5 40.3521 25.65 41.6354 25.9333V23.4C40.3187 23.15 38.9021 23 37.4688 23C34.6354 23 32.0687 23.4833 29.9688 24.3833V27.15C31.8521 26.0833 34.4688 25.5 37.4688 25.5Z" fill="#0DB6BC"/>
<path d="M29.9688 28.8169V31.5836C31.8521 30.5169 34.4688 29.9336 37.4688 29.9336C38.9354 29.9336 40.3521 30.0836 41.6354 30.3669V27.8336C40.3187 27.5836 38.9021 27.4336 37.4688 27.4336C34.6354 27.4336 32.0687 27.9336 29.9688 28.8169Z" fill="#0DB6BC"/>
<path d="M37.4688 31.8828C34.6354 31.8828 32.0687 32.3661 29.9688 33.2661V36.0328C31.8521 34.9661 34.4688 34.3828 37.4688 34.3828C38.9354 34.3828 40.3521 34.5328 41.6354 34.8161V32.2828C40.3187 32.0161 38.9021 31.8828 37.4688 31.8828Z" fill="#0DB6BC"/>
</svg>
