<svg width="32" height="32" viewBox="0 0 32 32" fill="none" xmlns="http://www.w3.org/2000/svg">
<circle opacity="0.1" cx="16" cy="16" r="16" fill="#F4F1FF"/>
<path fill-rule="evenodd" clip-rule="evenodd" d="M21.1414 21H19.1428V17.5005C19.1428 16.5405 18.7196 16.0049 17.9606 16.0049C17.1347 16.0049 16.6445 16.563 16.6445 17.5005V21H14.646V14.5H16.6445V15.231C16.6445 15.231 17.2716 14.1299 18.6846 14.1299C20.0981 14.1299 21.1414 14.9931 21.1414 16.7791V21ZM12.3686 13.4604C11.6946 13.4604 11.1484 12.9095 11.1484 12.23C11.1484 11.551 11.6946 11 12.3686 11C13.0421 11 13.5882 11.551 13.5882 12.23C13.5887 12.9095 13.0421 13.4604 12.3686 13.4604ZM11.1484 21H13.6467V14.5H11.1484V21Z" fill="#F4F1FF"/>
</svg>
