<svg width="32" height="32" viewBox="0 0 32 32" fill="none" xmlns="http://www.w3.org/2000/svg">
<circle opacity="0.1" cx="16" cy="16" r="16" fill="white"/>
<path fill-rule="evenodd" clip-rule="evenodd" d="M13.8808 21C18.4058 21 20.8809 17.1522 20.8809 13.8158C20.8809 13.7062 20.8809 13.5975 20.8737 13.4892C21.3552 13.1323 21.7707 12.6892 22.1011 12.1821C21.6526 12.3864 21.1759 12.5204 20.6885 12.5795C21.2017 12.2638 21.586 11.7679 21.7701 11.1827C21.2868 11.4768 20.7586 11.6844 20.2076 11.7958C19.2758 10.7792 17.7175 10.73 16.7264 11.6862C16.0878 12.3028 15.8162 13.2221 16.0147 14.099C14.0367 13.9968 12.1935 13.0381 10.944 11.461C10.291 12.6148 10.625 14.0902 11.7061 14.8311C11.3145 14.8194 10.9314 14.7112 10.589 14.5155V14.5476C10.5896 15.7494 11.4153 16.7842 12.5629 17.0223C12.2007 17.1238 11.8206 17.1385 11.4524 17.0653C11.7744 18.0942 12.6984 18.7989 13.7507 18.8192C12.8795 19.5219 11.8032 19.9035 10.6952 19.9023C10.4997 19.9016 10.3042 19.8899 10.1094 19.866C11.2348 20.6068 12.5437 21 13.8808 20.9982" fill="#F4F1FF"/>
</svg>
